<svg width="68" height="18" viewBox="0 0 68 18" fill="none" xmlns="http://www.w3.org/2000/svg"><path d="M1.193 1.2h65.614v15.6H1.193V1.2z" stroke="currentColor" stroke-width="2" stroke-miterlimit="10" stroke-linecap="round"/><path d="M33.319 13.178c2.09 0 3.355-.888 4.234-2.203l-2.267-1.651c-.527.621-1.001 1.012-1.792 1.012-1.124 0-1.897-.941-1.897-2.184 0-1.208.738-2.167 1.95-2.167.72 0 1.265.302 1.722.941L37.5 5.292c-.808-1.296-2.108-2.149-4.059-2.149-3.004 0-5.095 2.291-5.095 5.009 0 2.753 2.109 5.026 4.973 5.026z" fill="currentColor"/><path d="M38.346 7.61c.672 0 1.217-.551 1.217-1.23 0-.68-.545-1.232-1.218-1.232-.672 0-1.217.551-1.217 1.231s.545 1.231 1.218 1.231z" stroke="currentColor" stroke-miterlimit="10" stroke-linecap="round"/></svg>