<svg width="48" height="21" viewBox="0 0 48 21" fill="none" xmlns="http://www.w3.org/2000/svg"><path d="M1.416 1.111h45.396V19.27H1.416V1.11z" stroke="currentColor" stroke-width="2" stroke-miterlimit="10" stroke-linecap="round"/><path d="M35.778 19.27H12.03c-4.888 0-8.8-4.051-8.8-8.8v.419c0-4.889 4.051-8.8 8.8-8.8h23.747c4.888 0 8.8 4.05 8.8 8.8 0 4.889-4.051 8.38-8.8 8.38z" stroke="currentColor" stroke-width="2" stroke-miterlimit="10" stroke-linecap="round"/><g clip-path="url(#clip0)"><path d="M23.714 15.143a1.714 1.714 0 100-3.429 1.714 1.714 0 000 3.429z" fill="currentColor"/></g><g clip-path="url(#clip1)"><path d="M23.714 10a1.714 1.714 0 100-3.428 1.714 1.714 0 000 3.428z" fill="currentColor"/></g><defs><clipPath id="clip0"/><clipPath id="clip1"/></defs></svg>