<svg width="27" height="33" viewBox="0 0 27 33" fill="none" xmlns="http://www.w3.org/2000/svg"><path d="M18.044 33H5.531a.5.5 0 01-.497-.443L2.445 9.902a.501.501 0 01.497-.557h17.691a.5.5 0 01.497.557l-2.589 22.654a.5.5 0 01-.497.444zM5.977 32h11.621l2.475-21.654H3.503L5.976 32z" fill="currentColor"/><path d="M20.07 15.275H3.581a.5.5 0 010-1h16.49a.5.5 0 010 1zm-8.949 7.079h-3.09a.5.5 0 01-.5-.5v-3.09a.5.5 0 01.5-.5h3.09a.5.5 0 01.5.5v3.09a.5.5 0 01-.5.5zm-2.59-1h2.09v-2.09h-2.09v2.09zm6.195 7.281a.493.493 0 01-.26-.073l-2.639-1.606a.5.5 0 01-.167-.687l1.606-2.639a.499.499 0 01.687-.167l2.64 1.606a.5.5 0 01.166.687l-1.606 2.64a.499.499 0 01-.427.24zm-1.95-2.274l1.783 1.086 1.086-1.784-1.784-1.086-1.086 1.784z" fill="currentColor"/><path d="M20.66 15.9c-.197 0-.393-.01-.586-.027a.501.501 0 01-.45-.545c.025-.274.26-.464.544-.45a5.223 5.223 0 005.71-5.195 5.224 5.224 0 00-5.218-5.219 5.223 5.223 0 00-5.217 5.218.5.5 0 01-1 0 6.224 6.224 0 016.217-6.218 6.225 6.225 0 016.218 6.218A6.226 6.226 0 0120.66 15.9zM8.03 10.183a.5.5 0 01-.492-.415L6.027 1H.623a.5.5 0 010-1h5.825a.5.5 0 01.493.415l1.583 9.183a.5.5 0 01-.494.585z" fill="currentColor"/><path d="M20.633 10.346a.5.5 0 01-.5-.5v-5.88a.5.5 0 011 0v5.88a.5.5 0 01-.5.5z" fill="currentColor"/><path d="M24.687 14.21a.502.502 0 01-.354-.146L16.28 6.009a.5.5 0 01.707-.707l8.054 8.055a.5.5 0 01-.354.853z" fill="currentColor"/><path d="M20.633 10.346a.5.5 0 01-.354-.853l4.078-4.078a.5.5 0 01.707.707L20.986 10.2a.498.498 0 01-.353.146z" fill="currentColor"/><path d="M26.377 10.183h-5.744a.5.5 0 010-1h5.744a.5.5 0 010 1z" fill="currentColor"/></svg>