<svg width="25" height="33" viewBox="0 0 25 33" fill="none" xmlns="http://www.w3.org/2000/svg"><path d="M24.056 29.458l-7.488-11.995V7.397h.674a.575.575 0 00.575-.574V3.05a.575.575 0 00-.575-.574h-9.01a.575.575 0 00-.575.574v3.773c0 .317.258.574.575.574h.674v2.398a.575.575 0 101.15 0V7.397h3.868a.575.575 0 100-1.15H8.807V3.626h7.86v2.623h-.674a.575.575 0 00-.575.575v10.805c0 .107.03.213.087.304l7.027 11.256h-1.979a.575.575 0 000 1.15h2.653c.096.3.065.625-.094.912-.209.376-.59.6-1.02.6H3.382c-.43 0-.811-.224-1.02-.6a1.15 1.15 0 01-.094-.913h16.024a.575.575 0 100-1.15H2.942L9.8 18.203h4.239a.575.575 0 000-1.15h-3.983v-5.34a.575.575 0 10-1.15 0v5.75L1.418 29.459a2.287 2.287 0 00-.061 2.35A2.287 2.287 0 003.382 33h18.71c.854 0 1.611-.446 2.025-1.193a2.287 2.287 0 00-.06-2.349z" fill="currentColor"/><path d="M11.74 19.95h-1.725a.575.575 0 100 1.15h1.724a.575.575 0 000-1.15zm-1.265 2.184H8.75a.575.575 0 100 1.15h1.725a.575.575 0 000-1.15zM9.21 24.319H7.485a.575.575 0 000 1.15H9.21a.575.575 0 100-1.15zM21.702 15.3a2.446 2.446 0 00-2.443 2.444 2.446 2.446 0 002.443 2.443 2.446 2.446 0 002.443-2.443 2.446 2.446 0 00-2.443-2.444zm0 3.737c-.713 0-1.294-.58-1.294-1.293s.58-1.294 1.294-1.294a1.295 1.295 0 010 2.587zM5.345 7.592c-1.196 0-2.17.973-2.17 2.169 0 1.196.974 2.17 2.17 2.17s2.17-.974 2.17-2.17-.974-2.17-2.17-2.17zm0 3.189a1.02 1.02 0 010-2.04 1.02 1.02 0 010 2.04zm-3.04 7.474c-.947 0-1.717.77-1.717 1.717 0 .947.77 1.717 1.717 1.717.947 0 1.717-.77 1.717-1.717 0-.947-.77-1.717-1.717-1.717zm0 2.284a.568.568 0 11.001-1.136.568.568 0 01-.001 1.136zm4.403-4.673a.575.575 0 100-1.15.575.575 0 000 1.15zM15.177 1.15a.575.575 0 100-1.15.575.575 0 000 1.15zm4.003 9.891a.575.575 0 100-1.15.575.575 0 000 1.15z" fill="currentColor"/></svg>