<svg width="25" height="33" viewBox="0 0 25 33" fill="none" xmlns="http://www.w3.org/2000/svg">
<path d="M24.0564 29.458L16.5679 17.4628V7.39748H17.2416C17.5591 7.39748 17.8165 7.14012 17.8165 6.82263V3.05044C17.8165 2.73295 17.5591 2.47559 17.2416 2.47559H8.23219C7.91469 2.47559 7.65733 2.73295 7.65733 3.05044V6.82263C7.65733 7.14012 7.91469 7.39748 8.23219 7.39748H8.90598V9.79488C8.90598 10.1124 9.16334 10.3697 9.48084 10.3697C9.79834 10.3697 10.0557 10.1124 10.0557 9.79488V7.39748H13.9237C14.2412 7.39748 14.4985 7.14012 14.4985 6.82263C14.4985 6.50513 14.2412 6.24777 13.9237 6.24777H8.80711V3.6253H16.6668V6.24783H15.993C15.6755 6.24783 15.4181 6.5052 15.4181 6.82269V17.6275C15.4181 17.7352 15.4484 17.8406 15.5053 17.932L22.5321 29.1877H20.5532C20.2357 29.1877 19.9783 29.4451 19.9783 29.7626C19.9783 30.0801 20.2357 30.3374 20.5532 30.3374H23.2061C23.3015 30.6376 23.2708 30.963 23.1117 31.2499C22.9031 31.6259 22.522 31.8504 22.0921 31.8504H3.38177C2.95187 31.8504 2.57063 31.6259 2.36212 31.2499C2.20299 30.963 2.17243 30.6376 2.26776 30.3374H18.2923C18.6098 30.3374 18.8671 30.0801 18.8671 29.7626C18.8671 29.4451 18.6098 29.1877 18.2923 29.1877H2.94162L9.79962 18.2025H14.0387C14.3562 18.2025 14.6136 17.9451 14.6136 17.6276C14.6136 17.3101 14.3562 17.0528 14.0387 17.0528H10.0557V11.7111C10.0557 11.3936 9.79834 11.1363 9.48084 11.1363C9.16334 11.1363 8.90598 11.3936 8.90598 11.7111V17.4629L1.41756 29.458C0.965357 30.1824 0.942605 31.0606 1.35678 31.8074C1.77089 32.5542 2.52789 33 3.38183 33H22.0921C22.9461 33 23.7031 32.5542 24.1172 31.8074C24.5313 31.0605 24.5086 30.1824 24.0564 29.458Z" fill="currentColor"/>
<path d="M11.7392 19.95H10.0148C9.6973 19.95 9.43994 20.2073 9.43994 20.5248C9.43994 20.8423 9.6973 21.0997 10.0148 21.0997H11.7392C12.0566 21.0997 12.314 20.8423 12.314 20.5248C12.314 20.2073 12.0566 19.95 11.7392 19.95Z" fill="currentColor"/>
<path d="M10.4746 22.1343H8.75015C8.43265 22.1343 8.17529 22.3916 8.17529 22.7091C8.17529 23.0266 8.43265 23.284 8.75015 23.284H10.4746C10.7921 23.284 11.0495 23.0266 11.0495 22.7091C11.0495 22.3916 10.7921 22.1343 10.4746 22.1343Z" fill="currentColor"/>
<path d="M9.20994 24.3186H7.4855C7.16801 24.3186 6.91064 24.576 6.91064 24.8935C6.91064 25.211 7.16801 25.4683 7.4855 25.4683H9.20994C9.52744 25.4683 9.7848 25.211 9.7848 24.8935C9.7848 24.576 9.52744 24.3186 9.20994 24.3186Z" fill="currentColor"/>
<path d="M21.7018 15.3005C20.3547 15.3005 19.2588 16.3964 19.2588 17.7436C19.2588 19.0907 20.3547 20.1866 21.7018 20.1866C23.0489 20.1866 24.1449 19.0907 24.1449 17.7436C24.1449 16.3965 23.0488 15.3005 21.7018 15.3005ZM21.7018 19.0369C20.9887 19.0369 20.4085 18.4567 20.4085 17.7436C20.4085 17.0305 20.9887 16.4503 21.7018 16.4503C22.4149 16.4503 22.9951 17.0304 22.9951 17.7436C22.9951 18.4568 22.4149 19.0369 21.7018 19.0369Z" fill="currentColor"/>
<path d="M5.34479 7.59155C4.1486 7.59155 3.17529 8.56479 3.17529 9.76091C3.17529 10.957 4.14854 11.9303 5.34479 11.9303C6.54104 11.9303 7.51416 10.9571 7.51416 9.76091C7.51422 8.56473 6.54104 7.59155 5.34479 7.59155ZM5.34479 10.7806C4.7825 10.7806 4.32501 10.3232 4.32501 9.76091C4.32501 9.19862 4.7825 8.74114 5.34479 8.74114C5.90708 8.74114 6.3645 9.19862 6.3645 9.76091C6.3645 10.3232 5.90708 10.7806 5.34479 10.7806Z" fill="currentColor"/>
<path d="M2.30499 18.2549C1.35817 18.2549 0.587891 19.0252 0.587891 19.972C0.587891 20.9188 1.35817 21.6891 2.30499 21.6891C3.2518 21.6891 4.02208 20.9188 4.02208 19.972C4.02208 19.0252 3.2518 18.2549 2.30499 18.2549ZM2.30499 20.5394C1.99213 20.5394 1.73761 20.2849 1.73761 19.972C1.73761 19.6592 1.99213 19.4047 2.30499 19.4047C2.61784 19.4047 2.87237 19.6592 2.87237 19.972C2.87237 20.2849 2.61784 20.5394 2.30499 20.5394Z" fill="currentColor"/>
<path d="M6.70767 15.8658C7.02516 15.8658 7.28253 15.6084 7.28253 15.2909C7.28253 14.9734 7.02516 14.7161 6.70767 14.7161C6.39019 14.7161 6.13281 14.9734 6.13281 15.2909C6.13281 15.6084 6.39019 15.8658 6.70767 15.8658Z" fill="currentColor"/>
<path d="M15.1769 1.14971C15.4944 1.14971 15.7518 0.892342 15.7518 0.574857C15.7518 0.257372 15.4944 0 15.1769 0C14.8594 0 14.6021 0.257372 14.6021 0.574857C14.6021 0.892342 14.8594 1.14971 15.1769 1.14971Z" fill="currentColor"/>
<path d="M19.1793 11.0411C19.4968 11.0411 19.7542 10.7837 19.7542 10.4662C19.7542 10.1487 19.4968 9.89136 19.1793 9.89136C18.8619 9.89136 18.6045 10.1487 18.6045 10.4662C18.6045 10.7837 18.8619 11.0411 19.1793 11.0411Z" fill="currentColor"/>
</svg>
